<?xml version="1.0" encoding="utf-8"?>
<!-- Generator: Adobe Illustrator 22.1.0, SVG Export Plug-In . SVG Version: 6.00 Build 0)  -->
<svg version="1.1" id="Layer_1" xmlns="http://www.w3.org/2000/svg" xmlns:xlink="http://www.w3.org/1999/xlink" x="0px" y="0px"
	 viewBox="0 0 1410.5 1024" style="enable-background:new 0 0 1410.5 1024;" xml:space="preserve">
<style type="text/css">
	.st0{fill:#BCE5F0;}
	.st1{fill:#0E2233;}
	.st2{fill:#FFFFFF;}
</style>
<g>
	<path class="st0" d="M858.9,915.1C520.8,1225-83,816.5,9.6,401.9C57.9,184.5,255.1,45.7,476.5,9.4
		c477-78.5,706.4,346.2,493.1,754.7C939.4,826.6,901.1,876.9,858.9,915.1z"/>
</g>
<g>
	<g>
		<path class="st1" d="M860.9,979.5c-10.1,0-18.1-6-20.1-16.1c-6-28.2-16.1-68.4-24.2-116.7c-16.1-78.5-36.2-181.1-60.4-265.7
			c-142.9,40.3-253.6,48.3-297.9-12.1c-40.3-54.3-36.2-110.7,14.1-153c64.4-54.3,195.2-66.4,255.6-4c22.1,22.1,40.3,64.4,56.4,114.7
			c120.8-38.2,251.6-92.6,338.1-126.8c72.5-30.2,128.8-52.3,157-60.4c12.1-2,22.1,4,26.2,16.1c2,12.1-4,22.1-16.1,26.2
			c-26.2,6-84.5,30.2-150.9,58.4c-120.8,50.3-237.5,96.6-340.1,128.8c24.2,84.5,44.3,185.2,60.4,269.7
			c10.1,48.3,18.1,88.6,24.2,114.7c2,12.1-4,22.1-16.1,26.2C862.9,979.5,862.9,979.5,860.9,979.5z M611.3,412
			c-40.3,0-84.5,14.1-112.7,36.2c-32.2,26.2-34.2,58.4-8.1,94.6c32.2,42.3,134.8,28.2,251.6-4c-14.1-44.3-30.2-78.5-48.3-96.6
			C675.7,422,645.5,412,611.3,412z"/>
	</g>
	<g>
		<path class="st1" d="M951.5,933.2c-10.1,0-18.1-6-20.1-16.1c-10.1-32.2-18.1-72.5-26.2-114.7c-10.1-46.3-20.1-100.6-34.2-155
			c-26.2,6-52.3,12.1-74.5,18.1l-18.1,4C609.3,713.9,400,766.2,315.5,554.9c-34.2-88.6-6-148.9,24.2-181.1
			c82.5-90.6,261.6-104.7,354.2-80.5c108.7,30.2,169.1,163,207.3,305.9c4,0,8.1-2,14.1-2c138.9-30.2,295.8-62.4,388.4-124.8
			c10.1-6,22.1-4,30.2,6c6,10.1,4,22.1-6,30.2c-100.6,66.4-261.6,100.6-404.5,130.8c-4,0-8.1,2-12.1,2
			c14.1,52.3,24.2,106.7,34.2,155c8.1,42.3,16.1,82.5,24.2,114.7c2,12.1-4,22.1-16.1,26.2C953.5,933.2,951.5,933.2,951.5,933.2z
			 M599.2,321.4c-98.6,0-191.2,40.3-225.4,78.5c-32.2,36.2-38.2,82.5-16.1,138.9c70.4,177.1,243.5,132.8,412.6,90.6l18.1-4
			c22.1-6,48.3-12.1,74.5-18.1c-38.2-130.8-90.6-251.6-179.1-275.7C655.6,325.4,627.4,321.4,599.2,321.4z"/>
	</g>
	<g>
		<path class="st1" d="M1046,862.8c-8.1,0-16.1-6-20.1-14.1c-10.1-26.2-20.1-60.4-28.2-96.6c-48.3,6-90.6,12.1-120.8,14.1
			c-38.2,4-86.5,12.1-138.9,20.1c-136.9,24.2-291.8,50.3-384.4,12.1c-72.5-30.2-134.8-104.7-165-199.2
			c-30.2-98.6-22.1-199.2,20.1-265.7c40.3-62.4,136.9-110.7,265.7-134.8c118.7-22.1,235.5-16.1,309.9,12.1
			c140.9,56.4,193.2,279.7,237.5,458.9c2,10.1,6,22.1,8.1,32.2c124.8-20.1,279.7-58.4,344.2-126.8c8.1-8.1,22.1-8.1,30.2,0
			c8.1,8.1,8.1,22.1,0,30.2c-72.5,78.5-231.4,118.7-364.3,140.9c8.1,32.2,16.1,62.4,26.2,88.6c4,10.1-2,22.1-12.1,26.2
			C1050.1,862.8,1048.1,862.8,1046,862.8z M617.4,228.8c-42.3,0-90.6,4-134.8,12.1C367.8,261,277.2,305.3,243,355.6
			C206.8,412,200.8,500.5,226.9,585S305.4,734,367.8,758.1c82.5,32.2,237.5,6,362.3-16.1c52.3-10.1,102.6-18.1,142.9-20.1
			c26.2-2,66.4-6,114.7-12.1c-2-10.1-4-18.1-6-28.2C941.4,510.6,889.1,299.3,770.3,251C730.1,236.9,677.7,228.8,617.4,228.8z"/>
	</g>
</g>
</svg>
