<?xml version="1.0" encoding="utf-8"?>
<!-- Generator: Adobe Illustrator 22.1.0, SVG Export Plug-In . SVG Version: 6.00 Build 0)  -->
<svg version="1.1" id="Layer_1" xmlns="http://www.w3.org/2000/svg" xmlns:xlink="http://www.w3.org/1999/xlink" x="0px" y="0px"
	 viewBox="0 0 5150.2 1024" style="enable-background:new 0 0 5150.2 1024;" xml:space="preserve">
<style type="text/css">
	.st0{fill:#BCE5F0;}
	.st1{fill:#0E2233;}
	.st2{fill:#FFFFFF;}
</style>
<g>
	<g>
		<path class="st2" d="M2064.7,663.9c-30.2-2-42.2-4-58.3-4H1940c-16.1,0-28.2,2-58.3,4h-12.1v-20.1c4,0,6,0,10.1,0
			c40.2-4,46.3-16.1,46.3-46.3c0-16.1,0-32.2,0-46.3h-160.9c0,14.1,0,30.2,0,46.3c0,30.2,6,42.2,46.3,46.3c4,0,6,0,10.1,0v20.1
			h-12.1c-30.2-2-42.2-4-58.3-4h-66.4c-16.1,0-28.2,2-58.3,4h-12.1v-20.1c4,0,6,0,10.1,0c42.2-4,46.3-16.1,46.3-50.3v-10.1
			c0-138.8,68.4-253.4,170.9-315.7c104.6,60.3,175,175,175,315.7v10.1c0,34.2,6,46.3,46.3,50.3c4,0,6,0,10.1,0v20.1H2064.7z
			 M1847.5,324.1c-42.2,32.2-70.4,76.4-78.4,193.1H1926C1917.9,400.5,1889.8,356.2,1847.5,324.1z"/>
	</g>
	<g>
		<path class="st2" d="M2175.3,663.9h-12.1v-20.1c4,0,6,0,10.1,0c42.2-4,46.3-16.1,46.3-50.3V352.2c0-34.2-6-46.3-46.3-50.3
			c-4,0-6,0-10.1,0v-20.1h12.1c30.2,2,42.2,4,58.3,4h66.4c16.1,0,28.2-2,58.3-4h12.1v20.1c-4,0-6,0-10.1,0
			c-42.2,4-46.3,16.1-46.3,50.3v225.2c0,30.2,2,32.2,28.2,32.2h56.3c44.2,0,50.3-2,80.4-40.2l20.1-26.1h24.1
			c-32.2,42.2-44.2,96.5-50.3,116.6c0,0-122.7-4-170.9-4h-66.4C2217.5,659.9,2205.5,661.9,2175.3,663.9z"/>
	</g>
	<g>
		<path class="st2" d="M2728.3,595.5c0,34.2,6,46.3,46.3,50.3c4,0,6,0,10.1,0v20.1h-12.1c-30.2-2-42.2-4-58.3-4h-66.4
			c-16.1,0-28.2,2-58.3,4h-12.1v-20.1c4,0,6,0,10.1,0c42.2-4,46.3-16.1,46.3-50.3V354.2c0-34.2-6-46.3-46.3-50.3c-4,0-6,0-10.1,0
			v-20.1h12.1c30.2,2,42.2,4,58.3,4c0,0,108.6-2,138.8-2c86.5,0,136.7,42.2,136.7,94.5c0,72.4-72.4,122.7-150.8,122.7
			c-16.1,0-32.2-2-46.3-2v94.5H2728.3z M2758.5,472.9c40.2,0,74.4-30.2,74.4-78.4c0-38.2-22.1-70.4-68.4-70.4
			c-22.1,0-36.2,0-36.2,20.1v126.7C2728.3,470.9,2748.4,472.9,2758.5,472.9z"/>
	</g>
	<g>
		<path class="st2" d="M3152.6,595.5c0,34.2,6,46.3,46.3,50.3c4,0,6,0,10.1,0v20.1h-12.1c-30.2-2-42.2-4-58.3-4h-66.4
			c-16.1,0-28.2,2-58.3,4h-12.1v-20.1c4,0,6,0,10.1,0c42.2-4,46.3-16.1,46.3-50.3V354.2c0-34.2-6-46.3-46.3-50.3c-4,0-6,0-10.1,0
			v-20.1h12.1c30.2,2,42.2,4,58.3,4h66.4c16.1,0,28.2-2,58.3-4h12.1v20.1c-4,0-6,0-10.1,0c-42.2,4-46.3,16.1-46.3,50.3v76.4
			l158.9,14.1v-90.5c0-34.2-6-46.3-46.3-50.3c-4,0-6,0-10.1,0v-20.1h12.1c30.2,2,42.2,4,58.3,4h66.4c16.1,0,28.2-2,58.3-4h12.1v20.1
			c-4,0-6,0-10.1,0c-42.2,4-46.3,16.1-46.3,50.3v241.3c0,34.2,6,46.3,46.3,50.3c4,0,6,0,10.1,0v20.1h-12.1c-30.2-2-42.2-4-58.3-4
			h-66.4c-16.1,0-28.2,2-58.3,4h-12.1v-20.1c4,0,6,0,10.1,0c42.2-4,46.3-16.1,46.3-50.3V497l-158.9-14.1V595.5z"/>
	</g>
	<g>
		<path class="st2" d="M3715.7,476.9v100.5c0,30.2,2,32.2,28.2,32.2c6,0,58.3,0,58.3,0c44.2,0,54.3-12.1,78.4-48.3l22.1-2
			c-26.1,42.2-26.1,78.4-32.2,102.6c0,0-58.3-2-96.5-2h-138.8c-16.1,0-28.2,2-58.3,4h-12.1v-20.1c4,0,6,0,10.1,0
			c42.2-4,46.3-16.1,46.3-50.3V352.2c0-34.2-6-46.3-46.3-50.3c-4,0-6,0-10.1,0v-20.1h12.1c30.2,2,42.2,4,58.3,4h235.3l12.1,92.5
			h-18.1c-10.1-38.2-16.1-42.2-50.3-42.2l-100.5-2v96.5h68.4c12.1,0,22.1-16.1,26.1-26.1h6c10.1,22.1,24.1,36.2,46.3,46.3v6
			c-22.1,10.1-36.2,24.1-46.3,46.3h-6c-4-10.1-14.1-26.1-26.1-26.1H3715.7z"/>
	</g>
	<g>
		<path class="st2" d="M4200.3,663.9c-30.2-2-42.2-4-58.3-4h-66.4c-16.1,0-28.2,2-58.3,4h-12.1v-20.1c4,0,6,0,10.1,0
			c42.2-4,46.3-16.1,46.3-50.3V352.2c0-34.2-6-46.3-46.3-50.3c-4,0-6,0-10.1,0v-20.1h12.1c30.2,2,42.2,4,58.3,4h66.4
			c16.1,0,28.2-2,58.3-4h12.1v20.1c-4,0-6,0-10.1,0c-42.2,4-46.3,16.1-46.3,50.3v241.3c0,34.2,6,46.3,46.3,50.3c4,0,6,0,10.1,0v20.1
			H4200.3z M4115.9,243.6h-8c-12.1-26.1-30.2-44.2-56.3-56.3v-10.1c26.1-12.1,44.2-30.2,56.3-56.3h8c12.1,26.1,30.2,44.2,56.3,56.3
			v8C4146,199.4,4128,215.5,4115.9,243.6z"/>
	</g>
	<g>
		<path class="st2" d="M4552.3,674c-122.7,0-221.2-76.4-221.2-193.1c0-110.6,92.5-205.1,221.2-205.1c122.7,0,221.2,76.4,221.2,193.1
			C4773.5,577.4,4681,674,4552.3,674z M4538.2,328.1c-74.4,0-120.7,64.4-112.6,144.8s62.3,144.8,140.8,144.8
			c74.4,0,120.7-66.4,112.6-144.8C4670.9,394.4,4616.6,328.1,4538.2,328.1z M4556.3,533.2h-8c-12.1-26.1-30.2-44.2-56.3-56.3v-8
			c26.1-12.1,44.2-30.2,56.3-56.3h8c12.1,26.1,30.2,44.2,56.3,56.3v8C4586.4,489,4568.3,507.1,4556.3,533.2z"/>
	</g>
	<g>
		<path class="st2" d="M5002.7,674c-50.3,0-90.5-18.1-108.6-24.1L4878,549.3h20.1c14.1,56.3,42.2,84.5,90.5,84.5
			c42.2,0,70.4-20.1,70.4-56.3c0-32.2-32.2-54.3-96.5-88.5c-48.3-26.1-80.4-68.4-80.4-112.6c0-62.3,48.3-102.6,120.7-102.6
			c46.3,0,70.4,18.1,108.6,16.1l12.1,86.5h-16.1c-22.1-50.3-58.3-62.3-90.5-62.3c-34.2,0-54.3,20.1-54.3,48.3
			c0,26.1,42.2,46.3,74.4,64.4c72.4,40.2,106.6,74.4,106.6,136.7C5147.5,615.6,5089.2,674,5002.7,674z"/>
	</g>
</g>
<g>
	<path class="st0" d="M858.1,915.3C520.3,1225-83,816.7,9.5,402.5C57.8,185.3,254.9,46.5,476.1,10.3
		c476.6-78.4,705.8,345.9,492.7,754.1C938.6,826.8,900.4,877.1,858.1,915.3z"/>
</g>
<g>
	<g>
		<path class="st1" d="M860.2,979.6c-10.1,0-18.1-6-20.1-16.1c-6-28.2-16.1-68.4-24.1-116.6c-16.1-78.4-36.2-181-60.3-265.4
			c-142.8,40.2-253.4,48.3-297.6-12.1c-40.2-54.3-36.2-110.6,14.1-152.8c64.4-54.3,195.1-66.4,255.4-4
			c22.1,22.1,40.2,64.4,56.3,114.6c120.7-38.2,251.4-92.5,337.8-126.7c72.4-30.2,128.7-52.3,156.9-60.3c12.1-2,22.1,4,26.1,16.1
			c2,12.1-4,22.1-16.1,26.1c-26.1,6-84.5,30.2-150.8,58.3C1017,491,900.4,537.2,797.8,569.4c24.1,84.5,44.2,185,60.3,269.5
			c10.1,48.3,18.1,88.5,24.1,114.6c2,12.1-4,22.1-16.1,26.1C862.2,979.6,862.2,979.6,860.2,979.6z M610.8,412.5
			c-40.2,0-84.5,14.1-112.6,36.2c-32.2,26.1-34.2,58.3-8,94.5c32.2,42.2,134.7,28.2,251.4-4c-14.1-44.2-30.2-78.4-48.3-96.5
			C675.2,422.6,645,412.5,610.8,412.5z"/>
	</g>
	<g>
		<path class="st1" d="M950.7,933.4c-10.1,0-18.1-6-20.1-16.1c-10.1-32.2-18.1-72.4-26.1-114.6c-10.1-46.3-20.1-100.5-34.2-154.8
			c-26.1,6-52.3,12.1-74.4,18.1l-18.1,4c-168.9,44.2-378.1,96.5-462.5-114.6c-34.2-88.5-6-148.8,24.1-181
			c82.4-90.5,261.4-104.6,353.9-80.4c108.6,30.2,168.9,162.9,207.1,305.7c4,0,8-2,14.1-2c138.8-30.2,295.6-62.3,388.1-124.7
			c10.1-6,22.1-4,30.2,6c6,10.1,4,22.1-6,30.2c-100.5,66.4-261.4,100.5-404.2,130.7c-4,0-8,2-12.1,2
			c14.1,52.3,24.1,106.6,34.2,154.8c8,42.2,16.1,82.4,24.1,114.6c2,12.1-4,22.1-16.1,26.1C952.7,933.4,950.7,933.4,950.7,933.4z
			 M598.7,322c-98.5,0-191,40.2-225.2,78.4c-32.2,36.2-38.2,82.4-16.1,138.8c70.4,177,243.3,132.7,412.2,90.5l18.1-4
			c22.1-6,48.3-12.1,74.4-18.1c-38.2-130.7-90.5-251.4-179-275.5C655,326.1,626.9,322,598.7,322z"/>
	</g>
	<g>
		<path class="st1" d="M1045.2,863c-8,0-16.1-6-20.1-14.1c-10.1-26.1-20.1-60.3-28.2-96.5c-48.3,6-90.5,12.1-120.7,14.1
			c-38.2,4-86.5,12.1-138.8,20.1c-136.7,24.1-291.6,50.3-384.1,12.1C281,768.5,218.7,694.1,188.5,599.6
			c-30.2-98.5-22.1-199.1,20.1-265.4c40.2-62.3,136.7-110.6,265.4-134.7c118.6-22.1,235.3-16.1,309.7,12.1
			C924.5,267.7,976.8,491,1021,669.9c2,10.1,6,22.1,8,32.2c124.7-20.1,279.5-58.3,343.9-126.7c8-8,22.1-8,30.2,0c8,8,8,22.1,0,30.2
			c-72.4,78.4-231.3,118.6-364,140.8c8,32.2,16.1,62.3,26.1,88.5c4,10.1-2,22.1-12.1,26.1C1049.2,863,1047.2,863,1045.2,863z
			 M616.8,229.5c-42.2,0-90.5,4-134.7,12.1C367.5,261.7,277,306,242.8,356.2c-36.2,56.3-42.2,144.8-16.1,229.2
			s78.4,148.8,140.8,172.9c82.4,32.2,237.3,6,362-16.1c52.3-10.1,102.6-18.1,142.8-20.1c26.1-2,66.4-6,114.6-12.1
			c-2-10.1-4-18.1-6-28.2c-40.2-170.9-92.5-382.1-211.1-430.3C729.4,237.6,677.2,229.5,616.8,229.5z"/>
	</g>
</g>
</svg>
